<svg xmlns="http://www.w3.org/2000/svg" width="1440" height="2200"><rect x="0" y="0" width="1440" height="2200" stroke="#eee" fill="none" stroke-width="1" /><rect x="360" y="80" width="720" height="2000" stroke="#aaa" fill="none" stroke-width="1" /><text x="360" y="100" font-family="Georgia, serif" font-size="16" font-weight="normal" fill="#111">lhm</text><text x="480" y="100" font-family="Georgia, serif" font-size="16" font-weight="normal" fill="#111">Research</text><text x="600" y="100" font-family="Georgia, serif" font-size="16" font-weight="normal" fill="#111">Writing</text><text x="720" y="100" font-family="Georgia, serif" font-size="16" font-weight="normal" fill="#111">Projects</text><text x="840" y="100" font-family="Georgia, serif" font-size="16" font-weight="normal" fill="#111">Notes</text><text x="960" y="100" font-family="Georgia, serif" font-size="16" font-weight="normal" fill="#111">About</text><text x="360" y="180" font-family="Georgia, serif" font-size="42" font-weight="bold" fill="#111">Leif Hanson</text><text x="360" y="240" font-family="Georgia, serif" font-size="18" font-weight="normal" fill="#111">Designing AI systems, interfaces, and ideas.</text><text x="360" y="320" font-family="Georgia, serif" font-size="28" font-weight="bold" fill="#111">Research</text><rect x="360" y="360" width="720" height="50" stroke="#d0d0d0" fill="none" stroke-width="1" /><rect x="360" y="430" width="720" height="50" stroke="#d0d0d0" fill="none" stroke-width="1" /><rect x="360" y="500" width="720" height="50" stroke="#d0d0d0" fill="none" stroke-width="1" /><text x="360" y="590" font-family="Georgia, serif" font-size="28" font-weight="bold" fill="#111">Projects</text><rect x="360" y="630" width="720" height="60" stroke="#d0d0d0" fill="none" stroke-width="1" /><rect x="360" y="710" width="720" height="60" stroke="#d0d0d0" fill="none" stroke-width="1" /><rect x="360" y="790" width="720" height="60" stroke="#d0d0d0" fill="none" stroke-width="1" /><text x="360" y="890" font-family="Georgia, serif" font-size="28" font-weight="bold" fill="#111">Field Notes</text><rect x="360" y="930" width="720" height="40" stroke="#d0d0d0" fill="none" stroke-width="1" /><rect x="360" y="990" width="720" height="40" stroke="#d0d0d0" fill="none" stroke-width="1" /><rect x="360" y="1050" width="720" height="40" stroke="#d0d0d0" fill="none" stroke-width="1" /><rect x="360" y="1110" width="720" height="40" stroke="#d0d0d0" fill="none" stroke-width="1" /></svg>