<svg xmlns="http://www.w3.org/2000/svg" width="1440" height="2200"><rect x="0" y="0" width="1440" height="2200" stroke="#eee" fill="none" stroke-width="1" /><rect x="360" y="80" width="720" height="2000" stroke="#aaa" fill="none" stroke-width="1" /><text x="360" y="100" font-family="Georgia, serif" font-size="16" font-weight="normal" fill="#111">lhm</text><text x="480" y="100" font-family="Georgia, serif" font-size="16" font-weight="normal" fill="#111">Research</text><text x="600" y="100" font-family="Georgia, serif" font-size="16" font-weight="normal" fill="#111">Writing</text><text x="720" y="100" font-family="Georgia, serif" font-size="16" font-weight="normal" fill="#111">Projects</text><text x="840" y="100" font-family="Georgia, serif" font-size="16" font-weight="normal" fill="#111">Notes</text><text x="960" y="100" font-family="Georgia, serif" font-size="16" font-weight="normal" fill="#111">About</text><text x="360" y="190" font-family="Georgia, serif" font-size="40" font-weight="bold" fill="#111">Agents as Cognitive Prosthetics</text><text x="360" y="250" font-family="Georgia, serif" font-size="18" font-weight="normal" fill="#111">How AI systems extend human reasoning.</text><text x="360" y="290" font-family="Georgia, serif" font-size="14" font-weight="normal" fill="#111">Leif Hanson · 2026</text><rect x="360" y="370" width="720" height="60" stroke="#d0d0d0" fill="none" stroke-width="1" /><rect x="360" y="450" width="720" height="60" stroke="#d0d0d0" fill="none" stroke-width="1" /><rect x="360" y="530" width="720" height="60" stroke="#d0d0d0" fill="none" stroke-width="1" /><text x="360" y="610" font-family="Georgia, serif" font-size="28" font-weight="bold" fill="#111">Section Header</text><rect x="360" y="650" width="720" height="2" stroke="#e5e5e5" fill="#e5e5e5" stroke-width="1" /><rect x="360" y="690" width="720" height="60" stroke="#d0d0d0" fill="none" stroke-width="1" /><rect x="360" y="770" width="720" height="60" stroke="#d0d0d0" fill="none" stroke-width="1" /><rect x="360" y="850" width="720" height="220" stroke="#888" fill="none" stroke-width="1" /><text x="370" y="880" font-family="Georgia, serif" font-size="14" font-weight="normal" fill="#111">Diagram / Chart Block</text><rect x="360" y="1110" width="720" height="60" stroke="#d0d0d0" fill="none" stroke-width="1" /><rect x="360" y="1190" width="720" height="60" stroke="#d0d0d0" fill="none" stroke-width="1" /><rect x="360" y="1270" width="720" height="2" stroke="#e5e5e5" fill="#e5e5e5" stroke-width="1" /><text x="360" y="1300" font-family="Georgia, serif" font-size="18" font-weight="bold" fill="#111">References / Footnotes</text><rect x="360" y="1330" width="720" height="40" stroke="#d0d0d0" fill="none" stroke-width="1" /><rect x="360" y="1390" width="720" height="40" stroke="#d0d0d0" fill="none" stroke-width="1" /><rect x="360" y="1450" width="720" height="40" stroke="#d0d0d0" fill="none" stroke-width="1" /></svg>